<mxfile host="app.diagrams.net" agent="Mozilla/5.0 (Windows NT 10.0; Win64; x64) AppleWebKit/537.36 (KHTML, like Gecko) Chrome/135.0.0.0 Safari/537.36" version="26.2.14">
  <diagram name="Page-1" id="CDPY-f1KjxKO8-rPxaq9">
    <mxGraphModel dx="1042" dy="574" grid="1" gridSize="10" guides="1" tooltips="1" connect="1" arrows="1" fold="1" page="1" pageScale="1" pageWidth="850" pageHeight="1100" math="0" shadow="0">
      <root>
        <mxCell id="0" />
        <mxCell id="1" parent="0" />
        <mxCell id="4jTxZUCRyU9lTVDMuaN4-1" value="" style="image;sketch=0;aspect=fixed;html=1;points=[];align=center;fontSize=12;image=img/lib/mscae/DNS.svg;" parent="1" vertex="1">
          <mxGeometry x="60" y="100" width="70" height="70" as="geometry" />
        </mxCell>
        <mxCell id="4jTxZUCRyU9lTVDMuaN4-3" value="" style="image;aspect=fixed;html=1;points=[];align=center;fontSize=12;image=img/lib/azure2/networking/CDN_Profiles.svg;" parent="1" vertex="1">
          <mxGeometry x="50" y="430" width="85" height="50" as="geometry" />
        </mxCell>
        <mxCell id="4jTxZUCRyU9lTVDMuaN4-5" value="for Cache use" style="text;html=1;align=center;verticalAlign=middle;resizable=0;points=[];autosize=1;strokeColor=none;fillColor=none;" parent="1" vertex="1">
          <mxGeometry x="45" y="510" width="100" height="30" as="geometry" />
        </mxCell>
        <mxCell id="4jTxZUCRyU9lTVDMuaN4-6" value="" style="outlineConnect=0;dashed=0;verticalLabelPosition=bottom;verticalAlign=top;align=center;html=1;shape=mxgraph.aws3.classic_load_balancer;fillColor=#F58536;gradientColor=none;" parent="1" vertex="1">
          <mxGeometry x="208" y="270.22" width="69" height="72" as="geometry" />
        </mxCell>
        <mxCell id="4jTxZUCRyU9lTVDMuaN4-47" value="" style="edgeStyle=orthogonalEdgeStyle;rounded=0;orthogonalLoop=1;jettySize=auto;html=1;" parent="1" source="4jTxZUCRyU9lTVDMuaN4-7" target="4jTxZUCRyU9lTVDMuaN4-9" edge="1">
          <mxGeometry relative="1" as="geometry">
            <Array as="points">
              <mxPoint x="450" y="291" />
              <mxPoint x="450" y="291" />
            </Array>
          </mxGeometry>
        </mxCell>
        <mxCell id="4jTxZUCRyU9lTVDMuaN4-51" style="edgeStyle=orthogonalEdgeStyle;rounded=0;orthogonalLoop=1;jettySize=auto;html=1;" parent="1" source="4jTxZUCRyU9lTVDMuaN4-7" target="4jTxZUCRyU9lTVDMuaN4-6" edge="1">
          <mxGeometry relative="1" as="geometry">
            <Array as="points">
              <mxPoint x="330" y="306" />
              <mxPoint x="330" y="306" />
            </Array>
          </mxGeometry>
        </mxCell>
        <mxCell id="4jTxZUCRyU9lTVDMuaN4-7" value="" style="sketch=0;aspect=fixed;pointerEvents=1;shadow=0;dashed=0;html=1;strokeColor=none;labelPosition=center;verticalLabelPosition=bottom;verticalAlign=top;align=center;fillColor=#00188D;shape=mxgraph.mscae.enterprise.database_server" parent="1" vertex="1">
          <mxGeometry x="335" y="250.11" width="62.4" height="82.11" as="geometry" />
        </mxCell>
        <mxCell id="4jTxZUCRyU9lTVDMuaN4-8" value="JWT Auth" style="text;html=1;align=center;verticalAlign=middle;resizable=0;points=[];autosize=1;strokeColor=none;fillColor=none;" parent="1" vertex="1">
          <mxGeometry x="320" y="347.11" width="80" height="30" as="geometry" />
        </mxCell>
        <mxCell id="4jTxZUCRyU9lTVDMuaN4-37" value="" style="edgeStyle=orthogonalEdgeStyle;rounded=0;orthogonalLoop=1;jettySize=auto;html=1;" parent="1" source="4jTxZUCRyU9lTVDMuaN4-9" target="4jTxZUCRyU9lTVDMuaN4-12" edge="1">
          <mxGeometry relative="1" as="geometry">
            <Array as="points">
              <mxPoint x="588" y="296" />
              <mxPoint x="588" y="296" />
            </Array>
          </mxGeometry>
        </mxCell>
        <mxCell id="4jTxZUCRyU9lTVDMuaN4-9" value="" style="sketch=0;aspect=fixed;pointerEvents=1;shadow=0;dashed=0;html=1;strokeColor=none;labelPosition=center;verticalLabelPosition=bottom;verticalAlign=top;align=center;fillColor=#00188D;shape=mxgraph.mscae.enterprise.database_server" parent="1" vertex="1">
          <mxGeometry x="448" y="250.11" width="70" height="92.11" as="geometry" />
        </mxCell>
        <mxCell id="4jTxZUCRyU9lTVDMuaN4-62" style="edgeStyle=orthogonalEdgeStyle;rounded=0;orthogonalLoop=1;jettySize=auto;html=1;entryX=0;entryY=0.5;entryDx=0;entryDy=0;" parent="1" source="4jTxZUCRyU9lTVDMuaN4-10" target="4jTxZUCRyU9lTVDMuaN4-61" edge="1">
          <mxGeometry relative="1" as="geometry" />
        </mxCell>
        <mxCell id="4jTxZUCRyU9lTVDMuaN4-10" value="Main Server" style="text;html=1;align=center;verticalAlign=middle;resizable=0;points=[];autosize=1;strokeColor=none;fillColor=none;" parent="1" vertex="1">
          <mxGeometry x="438" y="350.11" width="90" height="30" as="geometry" />
        </mxCell>
        <mxCell id="4jTxZUCRyU9lTVDMuaN4-12" value="" style="sketch=0;aspect=fixed;pointerEvents=1;shadow=0;dashed=0;html=1;strokeColor=none;labelPosition=center;verticalLabelPosition=bottom;verticalAlign=top;align=center;fillColor=#00188D;shape=mxgraph.mscae.enterprise.database_server" parent="1" vertex="1">
          <mxGeometry x="598" y="240.11" width="70" height="92.11" as="geometry" />
        </mxCell>
        <mxCell id="4jTxZUCRyU9lTVDMuaN4-13" value="SQL" style="text;html=1;align=center;verticalAlign=middle;resizable=0;points=[];autosize=1;strokeColor=none;fillColor=none;" parent="1" vertex="1">
          <mxGeometry x="608" y="338.11" width="50" height="30" as="geometry" />
        </mxCell>
        <mxCell id="4jTxZUCRyU9lTVDMuaN4-15" value="" style="outlineConnect=0;dashed=0;verticalLabelPosition=bottom;verticalAlign=top;align=center;html=1;shape=mxgraph.aws3.s3;fillColor=#E05243;gradientColor=none;" parent="1" vertex="1">
          <mxGeometry x="750" y="71" width="76.5" height="93" as="geometry" />
        </mxCell>
        <mxCell id="4jTxZUCRyU9lTVDMuaN4-16" value="Cloud Storage" style="text;html=1;align=center;verticalAlign=middle;resizable=0;points=[];autosize=1;strokeColor=none;fillColor=none;" parent="1" vertex="1">
          <mxGeometry x="738.25" y="170" width="100" height="30" as="geometry" />
        </mxCell>
        <mxCell id="4jTxZUCRyU9lTVDMuaN4-17" value="&lt;font style=&quot;font-size: 24px;&quot;&gt;S3&lt;/font&gt;" style="text;html=1;align=center;verticalAlign=middle;resizable=0;points=[];autosize=1;strokeColor=none;fillColor=none;" parent="1" vertex="1">
          <mxGeometry x="726.5" y="30" width="50" height="40" as="geometry" />
        </mxCell>
        <mxCell id="4jTxZUCRyU9lTVDMuaN4-18" value="Course, Books" style="text;html=1;align=center;verticalAlign=middle;resizable=0;points=[];autosize=1;strokeColor=none;fillColor=none;" parent="1" vertex="1">
          <mxGeometry x="738.25" y="190" width="100" height="30" as="geometry" />
        </mxCell>
        <mxCell id="4jTxZUCRyU9lTVDMuaN4-20" value="Payment" style="html=1;whiteSpace=wrap;strokeColor=none;fillColor=#0079D6;labelPosition=center;verticalLabelPosition=middle;verticalAlign=top;align=center;fontSize=12;outlineConnect=0;spacingTop=-6;fontColor=#FFFFFF;sketch=0;shape=mxgraph.sitemap.payment;" parent="1" vertex="1">
          <mxGeometry x="528" y="500" width="120" height="70" as="geometry" />
        </mxCell>
        <mxCell id="4jTxZUCRyU9lTVDMuaN4-21" value="Payment Service" style="text;html=1;align=center;verticalAlign=middle;resizable=0;points=[];autosize=1;strokeColor=none;fillColor=none;" parent="1" vertex="1">
          <mxGeometry x="533" y="570" width="110" height="30" as="geometry" />
        </mxCell>
        <mxCell id="4jTxZUCRyU9lTVDMuaN4-23" value="" style="endArrow=none;html=1;rounded=0;exitX=0.428;exitY=0.005;exitDx=0;exitDy=0;exitPerimeter=0;entryX=0.497;entryY=1;entryDx=0;entryDy=0;entryPerimeter=0;" parent="1" target="4jTxZUCRyU9lTVDMuaN4-1" edge="1">
          <mxGeometry width="50" height="50" relative="1" as="geometry">
            <mxPoint x="94.7840000000001" y="242.86" as="sourcePoint" />
            <mxPoint x="180" y="170" as="targetPoint" />
          </mxGeometry>
        </mxCell>
        <mxCell id="4jTxZUCRyU9lTVDMuaN4-25" value="" style="endArrow=none;html=1;rounded=0;entryX=0.389;entryY=0.977;entryDx=0;entryDy=0;exitX=0.612;exitY=0.036;exitDx=0;exitDy=0;exitPerimeter=0;entryPerimeter=0;" parent="1" target="4jTxZUCRyU9lTVDMuaN4-39" edge="1">
          <mxGeometry width="50" height="50" relative="1" as="geometry">
            <mxPoint x="103.00999999999998" y="427.79999999999995" as="sourcePoint" />
            <mxPoint x="104.99" y="366.22" as="targetPoint" />
          </mxGeometry>
        </mxCell>
        <mxCell id="4jTxZUCRyU9lTVDMuaN4-27" value="Load Balancer" style="text;html=1;align=center;verticalAlign=middle;resizable=0;points=[];autosize=1;strokeColor=none;fillColor=none;" parent="1" vertex="1">
          <mxGeometry x="200" y="350.11" width="100" height="30" as="geometry" />
        </mxCell>
        <mxCell id="4jTxZUCRyU9lTVDMuaN4-33" value="" style="endArrow=classic;html=1;rounded=0;entryX=0;entryY=0.5;entryDx=0;entryDy=0;entryPerimeter=0;" parent="1" target="4jTxZUCRyU9lTVDMuaN4-15" edge="1">
          <mxGeometry width="50" height="50" relative="1" as="geometry">
            <mxPoint x="240" y="120" as="sourcePoint" />
            <mxPoint x="630" y="140" as="targetPoint" />
          </mxGeometry>
        </mxCell>
        <mxCell id="4jTxZUCRyU9lTVDMuaN4-39" value="Frontend&lt;div&gt;&lt;br&gt;&lt;/div&gt;&lt;div&gt;React&lt;/div&gt;" style="whiteSpace=wrap;html=1;aspect=fixed;" parent="1" vertex="1">
          <mxGeometry x="60" y="241.16" width="110" height="110" as="geometry" />
        </mxCell>
        <mxCell id="4jTxZUCRyU9lTVDMuaN4-43" value="" style="endArrow=none;html=1;rounded=0;exitX=0.5;exitY=0;exitDx=0;exitDy=0;exitPerimeter=0;" parent="1" source="4jTxZUCRyU9lTVDMuaN4-6" edge="1">
          <mxGeometry width="50" height="50" relative="1" as="geometry">
            <mxPoint x="200" y="190" as="sourcePoint" />
            <mxPoint x="240" y="120" as="targetPoint" />
          </mxGeometry>
        </mxCell>
        <mxCell id="4jTxZUCRyU9lTVDMuaN4-44" value="" style="image;sketch=0;aspect=fixed;html=1;points=[];align=center;fontSize=12;image=img/lib/mscae/Cache_Redis_Product.svg;" parent="1" vertex="1">
          <mxGeometry x="335" y="476" width="50" height="42" as="geometry" />
        </mxCell>
        <mxCell id="4jTxZUCRyU9lTVDMuaN4-45" value="Redis" style="text;html=1;align=center;verticalAlign=middle;resizable=0;points=[];autosize=1;strokeColor=none;fillColor=none;" parent="1" vertex="1">
          <mxGeometry x="335" y="530" width="50" height="30" as="geometry" />
        </mxCell>
        <mxCell id="4jTxZUCRyU9lTVDMuaN4-46" style="edgeStyle=orthogonalEdgeStyle;rounded=0;orthogonalLoop=1;jettySize=auto;html=1;entryX=0.512;entryY=-0.062;entryDx=0;entryDy=0;entryPerimeter=0;" parent="1" target="4jTxZUCRyU9lTVDMuaN4-44" edge="1">
          <mxGeometry relative="1" as="geometry">
            <mxPoint x="360" y="380.1100000000001" as="sourcePoint" />
          </mxGeometry>
        </mxCell>
        <mxCell id="4jTxZUCRyU9lTVDMuaN4-48" style="edgeStyle=orthogonalEdgeStyle;rounded=0;orthogonalLoop=1;jettySize=auto;html=1;entryX=0.026;entryY=0.683;entryDx=0;entryDy=0;entryPerimeter=0;" parent="1" source="4jTxZUCRyU9lTVDMuaN4-6" target="4jTxZUCRyU9lTVDMuaN4-7" edge="1">
          <mxGeometry relative="1" as="geometry" />
        </mxCell>
        <mxCell id="4jTxZUCRyU9lTVDMuaN4-49" value="CDN" style="text;html=1;align=center;verticalAlign=middle;resizable=0;points=[];autosize=1;strokeColor=none;fillColor=none;" parent="1" vertex="1">
          <mxGeometry x="64" y="488" width="50" height="30" as="geometry" />
        </mxCell>
        <mxCell id="4jTxZUCRyU9lTVDMuaN4-50" value="" style="endArrow=classic;startArrow=classic;html=1;rounded=0;entryX=0;entryY=0.5;entryDx=0;entryDy=0;entryPerimeter=0;exitX=0.977;exitY=0.583;exitDx=0;exitDy=0;exitPerimeter=0;" parent="1" source="4jTxZUCRyU9lTVDMuaN4-39" target="4jTxZUCRyU9lTVDMuaN4-6" edge="1">
          <mxGeometry width="50" height="50" relative="1" as="geometry">
            <mxPoint x="160" y="430" as="sourcePoint" />
            <mxPoint x="210" y="380" as="targetPoint" />
          </mxGeometry>
        </mxCell>
        <mxCell id="4jTxZUCRyU9lTVDMuaN4-57" value="" style="edgeStyle=orthogonalEdgeStyle;rounded=0;orthogonalLoop=1;jettySize=auto;html=1;" parent="1" source="4jTxZUCRyU9lTVDMuaN4-52" target="4jTxZUCRyU9lTVDMuaN4-18" edge="1">
          <mxGeometry relative="1" as="geometry" />
        </mxCell>
        <mxCell id="4jTxZUCRyU9lTVDMuaN4-52" value="" style="shape=image;html=1;verticalAlign=top;verticalLabelPosition=bottom;labelBackgroundColor=#ffffff;imageAspect=0;aspect=fixed;image=https://cdn2.iconfinder.com/data/icons/social-media-2421/512/Zoom-128.png;fillColor=#4488FF;" parent="1" vertex="1">
          <mxGeometry x="734.25" y="255.22000000000003" width="108" height="108" as="geometry" />
        </mxCell>
        <mxCell id="4jTxZUCRyU9lTVDMuaN4-55" value="" style="endArrow=classic;html=1;rounded=0;exitX=1.007;exitY=0.752;exitDx=0;exitDy=0;exitPerimeter=0;entryX=0;entryY=0.5;entryDx=0;entryDy=0;" parent="1" source="4jTxZUCRyU9lTVDMuaN4-12" target="4jTxZUCRyU9lTVDMuaN4-52" edge="1">
          <mxGeometry width="50" height="50" relative="1" as="geometry">
            <mxPoint x="760" y="440" as="sourcePoint" />
            <mxPoint x="734" y="306" as="targetPoint" />
          </mxGeometry>
        </mxCell>
        <mxCell id="4jTxZUCRyU9lTVDMuaN4-56" value="Meeting and Mentoring" style="text;html=1;align=center;verticalAlign=middle;resizable=0;points=[];autosize=1;strokeColor=none;fillColor=none;" parent="1" vertex="1">
          <mxGeometry x="648" y="380" width="150" height="30" as="geometry" />
        </mxCell>
        <mxCell id="4jTxZUCRyU9lTVDMuaN4-58" value="recordings, session notes" style="text;html=1;align=center;verticalAlign=middle;resizable=0;points=[];autosize=1;strokeColor=none;fillColor=none;" parent="1" vertex="1">
          <mxGeometry x="630" y="220" width="160" height="30" as="geometry" />
        </mxCell>
        <mxCell id="4jTxZUCRyU9lTVDMuaN4-59" style="edgeStyle=orthogonalEdgeStyle;rounded=0;orthogonalLoop=1;jettySize=auto;html=1;entryX=0;entryY=0.5;entryDx=0;entryDy=0;entryPerimeter=0;" parent="1" source="4jTxZUCRyU9lTVDMuaN4-10" target="4jTxZUCRyU9lTVDMuaN4-20" edge="1">
          <mxGeometry relative="1" as="geometry" />
        </mxCell>
        <mxCell id="4jTxZUCRyU9lTVDMuaN4-65" style="edgeStyle=orthogonalEdgeStyle;rounded=0;orthogonalLoop=1;jettySize=auto;html=1;" parent="1" source="4jTxZUCRyU9lTVDMuaN4-61" target="4jTxZUCRyU9lTVDMuaN4-52" edge="1">
          <mxGeometry relative="1" as="geometry" />
        </mxCell>
        <mxCell id="4jTxZUCRyU9lTVDMuaN4-61" value="" style="shape=image;html=1;verticalAlign=top;verticalLabelPosition=bottom;labelBackgroundColor=#ffffff;imageAspect=0;aspect=fixed;image=https://cdn0.iconfinder.com/data/icons/simple-lines-filled/32/34_Date_Calendar_Paper_Scheduler_Event_Week-128.png" parent="1" vertex="1">
          <mxGeometry x="580" y="410" width="50" height="50" as="geometry" />
        </mxCell>
        <mxCell id="4jTxZUCRyU9lTVDMuaN4-63" value="Scheduler Service" style="text;html=1;align=center;verticalAlign=middle;resizable=0;points=[];autosize=1;strokeColor=none;fillColor=none;" parent="1" vertex="1">
          <mxGeometry x="545" y="458" width="120" height="30" as="geometry" />
        </mxCell>
        <mxCell id="4jTxZUCRyU9lTVDMuaN4-66" style="edgeStyle=orthogonalEdgeStyle;rounded=0;orthogonalLoop=1;jettySize=auto;html=1;entryX=0.15;entryY=1.019;entryDx=0;entryDy=0;entryPerimeter=0;" parent="1" source="4jTxZUCRyU9lTVDMuaN4-61" target="4jTxZUCRyU9lTVDMuaN4-12" edge="1">
          <mxGeometry relative="1" as="geometry" />
        </mxCell>
      </root>
    </mxGraphModel>
  </diagram>
</mxfile>
